<?xml version="1.0" encoding="UTF-8" standalone="no"?>
<!-- Created with Inkscape (http://www.inkscape.org/) -->

<svg
   xmlns:dc="http://purl.org/dc/elements/1.1/"
   xmlns:cc="http://creativecommons.org/ns#"
   xmlns:rdf="http://www.w3.org/1999/02/22-rdf-syntax-ns#"
   xmlns:svg="http://www.w3.org/2000/svg"
   xmlns="http://www.w3.org/2000/svg"
   xmlns:sodipodi="http://sodipodi.sourceforge.net/DTD/sodipodi-0.dtd"
   xmlns:inkscape="http://www.inkscape.org/namespaces/inkscape"
   id="svg3807"
   viewBox="0 0 558.81 81.658"
   version="1.1"
   inkscape:version="0.48.4 r9939"
   width="100%"
   height="100%"
   sodipodi:docname="logo.svg">
  <defs
     id="defs10" />
  <sodipodi:namedview
     pagecolor="#ffffff"
     bordercolor="#666666"
     borderopacity="1"
     objecttolerance="10"
     gridtolerance="10"
     guidetolerance="10"
     inkscape:pageopacity="0"
     inkscape:pageshadow="2"
     inkscape:window-width="1920"
     inkscape:window-height="1025"
     id="namedview8"
     showgrid="false"
     inkscape:zoom="0.54938172"
     inkscape:cx="279.405"
     inkscape:cy="40.829"
     inkscape:window-x="-2"
     inkscape:window-y="-3"
     inkscape:window-maximized="1"
     inkscape:current-layer="svg3807" />
  <metadata
     id="metadata3812">
    <rdf:RDF>
      <cc:Work
         rdf:about="">
        <dc:format>image/svg+xml</dc:format>
        <dc:type
           rdf:resource="http://purl.org/dc/dcmitype/StillImage" />
        <dc:title />
      </cc:Work>
    </rdf:RDF>
  </metadata>
  <g
     id="layer1"
     transform="translate(-64.29855,-372.11889)">
    <g
       style="font-size:72px;font-style:normal;font-variant:normal;font-weight:bold;font-stretch:normal;line-height:125%;letter-spacing:0px;word-spacing:0px;fill:#00005e;font-family:Open Sans"
       id="text3815">
      <path
         d="m 89.154018,432.36218 -10.898437,0 0,-42.32812 -13.957031,0 0,-9.07031 38.8125,0 0,9.07031 -13.957032,0 0,42.32812"
         style=""
         id="path3017" />
      <path
         d="m 132.18527,392.31921 c 1.45309,4e-5 2.66012,0.10551 3.62109,0.31641 l -0.80859,10.05469 c -0.86722,-0.23435 -1.92191,-0.35153 -3.16406,-0.35156 -3.4219,3e-5 -6.09378,0.87893 -8.01563,2.63671 -1.89845,1.75784 -2.84767,4.21878 -2.84766,7.38282 l 0,20.0039 -10.72265,0 0,-39.30468 8.12109,0 1.58203,6.60937 0.52735,0 c 1.21873,-2.20309 2.85935,-3.97262 4.92187,-5.30859 2.08592,-1.35934 4.34763,-2.03903 6.78516,-2.03907"
         style=""
         id="path3019" />
      <path
         d="m 220.70871,433.06531 c -4.61721,0 -8.2383,-1.67578 -10.86329,-5.02735 l -0.5625,0 c 0.37499,3.28125 0.56249,5.17969 0.5625,5.69532 l 0,15.92578 -10.72265,0 0,-56.60156 8.71875,0 1.51172,5.09765 0.49218,0 c 2.5078,-3.89059 6.22264,-5.8359 11.14454,-5.83594 4.64059,4e-5 8.2734,1.79301 10.89843,5.37891 2.62496,3.58597 3.93746,8.56643 3.9375,14.94141 -4e-5,4.19532 -0.62113,7.83985 -1.86328,10.93359 -1.21879,3.09376 -2.96488,5.44922 -5.23828,7.06641 -2.27347,1.61718 -4.94534,2.42578 -8.01562,2.42578 m -3.16407,-32.16797 c -2.64846,3e-5 -4.58205,0.82034 -5.80078,2.46094 -1.21876,1.61721 -1.85158,4.3008 -1.89844,8.05078 l 0,1.16015 c -1e-5,4.21877 0.62108,7.2422 1.86329,9.07032 1.2656,1.82813 3.25779,2.74219 5.97656,2.74218 4.80466,10e-6 7.207,-3.96092 7.20703,-11.88281 -3e-5,-3.86716 -0.59769,-6.76169 -1.79297,-8.68359 -1.1719,-1.94528 -3.02346,-2.91794 -5.55469,-2.91797"
         style=""
         id="path3021" />
      <path
         d="m 244.22824,382.89734 c -1e-5,-3.49214 1.9453,-5.23823 5.83593,-5.23828 3.89061,5e-5 5.83593,1.74614 5.83594,5.23828 -1e-5,1.66411 -0.4922,2.96489 -1.47656,3.90234 -0.96095,0.91411 -2.41408,1.37114 -4.35938,1.3711 -3.89063,4e-5 -5.83594,-1.75777 -5.83593,-5.27344 m 11.17968,49.46484 -10.72265,0 0,-39.30468 10.72265,0 0,39.30468"
         style=""
         id="path3023" />
      <path
         d="m 282.58371,433.06531 c -12.23439,0 -18.35157,-6.71484 -18.35157,-20.14453 0,-6.67967 1.66406,-11.77732 4.99219,-15.29297 3.32811,-3.53903 8.09764,-5.30856 14.30859,-5.3086 4.54685,4e-5 8.62497,0.89067 12.23438,2.67188 l -3.16406,8.29687 c -1.68753,-0.67965 -3.25784,-1.23043 -4.71094,-1.65234 -1.45315,-0.44528 -2.90627,-0.66794 -4.35938,-0.66797 -5.57814,3e-5 -8.3672,3.96097 -8.36718,11.88281 -2e-5,7.68752 2.78904,11.53126 8.36718,11.53125 2.06248,10e-6 3.97263,-0.26952 5.73047,-0.80859 1.75779,-0.56249 3.5156,-1.42968 5.27344,-2.60156 l 0,9.17578 c -1.73441,1.10156 -3.49222,1.86328 -5.27344,2.28516 -1.75784,0.42187 -3.9844,0.63281 -6.67968,0.63281"
         style=""
         id="path3025" />
      <path
         d="m 328.56808,432.36218 -2.07422,-5.34375 -0.28125,0 c -1.80471,2.27344 -3.66799,3.85547 -5.58984,4.7461 -1.89846,0.86718 -4.38283,1.30078 -7.45313,1.30078 -3.77345,0 -6.75001,-1.07813 -8.92968,-3.23438 -2.15626,-2.15624 -3.23438,-5.22655 -3.23438,-9.21093 0,-4.17186 1.45312,-7.24217 4.35938,-9.21094 2.92967,-1.99217 7.33592,-3.09373 13.21875,-3.30469 l 6.82031,-0.21094 0,-1.72265 c -3e-5,-3.98435 -2.03909,-5.97653 -6.11719,-5.97657 -3.14064,4e-5 -6.83204,0.94925 -11.07422,2.84766 l -3.55078,-7.24219 c 4.52343,-2.36715 9.53905,-3.55074 15.04688,-3.55078 5.27341,4e-5 9.31637,1.14848 12.1289,3.44531 2.81247,2.29691 4.21871,5.7891 4.21875,10.47657 l 0,26.1914 -7.48828,0 m -3.16406,-18.21093 -4.14844,0.14062 c -3.11721,0.0938 -5.43752,0.65627 -6.96094,1.6875 -1.52345,1.03127 -2.28517,2.60158 -2.28515,4.71094 -2e-5,3.02344 1.73436,4.53516 5.20312,4.53515 2.48436,10e-6 4.46482,-0.71483 5.94141,-2.14453 1.49997,-1.42967 2.24997,-3.32811 2.25,-5.69531 l 0,-3.23437"
         style=""
         id="path3027" />
      <path
         d="m 357.78292,432.36218 -10.72265,0 0,-54.70312 10.72265,0 0,54.70312"
         style=""
         id="path3029" />
      <path
         d="m 408.37277,432.36218 -10.89844,0 0,-42.32812 -13.95703,0 0,-9.07031 38.8125,0 0,9.07031 -13.95703,0 0,42.32812"
         style=""
         id="path3031" />
      <path
         d="m 429.00949,382.89734 c -1e-5,-3.49214 1.9453,-5.23823 5.83593,-5.23828 3.89061,5e-5 5.83593,1.74614 5.83594,5.23828 -10e-6,1.66411 -0.4922,2.96489 -1.47656,3.90234 -0.96095,0.91411 -2.41408,1.37114 -4.35938,1.3711 -3.89063,4e-5 -5.83594,-1.75777 -5.83593,-5.27344 m 11.17968,49.46484 -10.72265,0 0,-39.30468 10.72265,0 0,39.30468"
         style=""
         id="path3033" />
      <path
         d="m 463.84933,433.06531 c -4.6172,0 -8.25001,-1.79297 -10.89844,-5.37891 -2.625,-3.58593 -3.9375,-8.55467 -3.9375,-14.90625 0,-6.44529 1.33594,-11.46091 4.00782,-15.04687 2.6953,-3.60934 6.39842,-5.41403 11.10937,-5.41407 4.94529,4e-5 8.71872,1.92192 11.32031,5.76563 l 0.35157,0 c -0.5391,-2.92965 -0.80863,-5.54293 -0.8086,-7.83984 l 0,-12.58594 10.75781,0 0,54.70312 -8.22656,0 -2.07422,-5.09765 -0.45703,0 c -2.43752,3.86719 -6.15236,5.80078 -11.14453,5.80078 m 3.76172,-8.54297 c 2.74216,1e-5 4.74607,-0.79687 6.01172,-2.39063 1.28903,-1.59373 1.99216,-4.30076 2.10937,-8.12109 l 0,-1.16016 c -3e-5,-4.21872 -0.65628,-7.24216 -1.96875,-9.07031 -1.28909,-1.82809 -3.39846,-2.74215 -6.32812,-2.74219 -2.39065,4e-5 -4.25393,1.01957 -5.58985,3.0586 -1.31251,2.01565 -1.96876,4.95705 -1.96875,8.82422 -10e-6,3.8672 0.66796,6.77345 2.00391,8.71875 1.33592,1.92188 3.24608,2.88282 5.73047,2.88281"
         style=""
         id="path3035" />
      <path
         d="m 518.83371,392.31921 c 4.64059,4e-5 8.2734,1.81645 10.89843,5.44922 2.62496,3.60941 3.93746,8.56643 3.9375,14.8711 -4e-5,6.4922 -1.35941,11.51954 -4.07812,15.08203 -2.69535,3.5625 -6.37503,5.34375 -11.03906,5.34375 -4.61721,0 -8.2383,-1.67578 -10.86329,-5.02735 l -0.73828,0 -1.79297,4.32422 -8.1914,0 0,-54.70312 10.72265,0 0,12.72656 c -10e-6,1.61723 -0.14064,4.20707 -0.42187,7.76953 l 0.42187,0 c 2.5078,-3.89059 6.22264,-5.8359 11.14454,-5.83594 m -3.44532,8.57813 c -2.64846,3e-5 -4.58205,0.82034 -5.80078,2.46094 -1.21876,1.61721 -1.85158,4.3008 -1.89844,8.05078 l 0,1.16015 c -10e-6,4.21877 0.62108,7.2422 1.86329,9.07032 1.2656,1.82813 3.25779,2.74219 5.97656,2.74218 2.2031,10e-6 3.94919,-1.0078 5.23828,-3.02343 1.31247,-2.03905 1.96872,-4.99218 1.96875,-8.85938 -3e-5,-3.86716 -0.65628,-6.76169 -1.96875,-8.68359 -1.31253,-1.94528 -3.1055,-2.91794 -5.37891,-2.91797"
         style=""
         id="path3037" />
      <path
         d="m 542.07199,382.89734 c -10e-6,-3.49214 1.9453,-5.23823 5.83593,-5.23828 3.89061,5e-5 5.83593,1.74614 5.83594,5.23828 -1e-5,1.66411 -0.4922,2.96489 -1.47656,3.90234 -0.96095,0.91411 -2.41408,1.37114 -4.35938,1.3711 -3.89063,4e-5 -5.83594,-1.75777 -5.83593,-5.27344 m 11.17968,49.46484 -10.72265,0 0,-39.30468 10.72265,0 0,39.30468"
         style=""
         id="path3039" />
      <path
         d="m 581.02511,424.52234 c 1.87498,1e-5 4.12498,-0.41015 6.75,-1.23047 l 0,7.98047 c -2.6719,1.19531 -5.95315,1.79297 -9.84375,1.79297 -4.28908,0 -7.41798,-1.07813 -9.38672,-3.23438 -1.94532,-2.17968 -2.91797,-5.43749 -2.91797,-9.77343 l 0,-18.94922 -5.13281,0 0,-4.53516 5.90625,-3.58594 3.09375,-8.29687 6.85547,0 0,8.36719 11.00391,0 0,8.05078 -11.00391,0 0,18.94922 c -2e-5,1.52344 0.42186,2.64844 1.26563,3.375 0.86716,0.72657 2.00388,1.08985 3.41015,1.08984"
         style=""
         id="path3041" />
      <path
         d="m 623.10714,420.69031 c -3e-5,4.03126 -1.40628,7.10156 -4.21875,9.21094 -2.78909,2.10937 -6.97267,3.16406 -12.55078,3.16406 -2.85939,0 -5.29688,-0.19922 -7.3125,-0.59766 -2.01563,-0.375 -3.90235,-0.9375 -5.66015,-1.6875 l 0,-8.85937 c 1.99218,0.93751 4.23046,1.72266 6.71484,2.35547 2.5078,0.63282 4.71092,0.94922 6.60937,0.94921 3.89061,10e-6 5.83592,-1.12499 5.83594,-3.375 -2e-5,-0.84373 -0.25783,-1.52342 -0.77344,-2.03906 -0.51564,-0.53905 -1.40627,-1.1367 -2.67187,-1.79297 -1.26564,-0.67967 -2.95314,-1.46483 -5.0625,-2.35547 -3.02345,-1.2656 -5.25001,-2.43748 -6.67969,-3.51562 -1.40625,-1.0781 -2.4375,-2.30857 -3.09375,-3.69141 -0.63281,-1.40622 -0.94922,-3.12888 -0.94922,-5.16797 0,-3.49215 1.34766,-6.18746 4.04297,-8.08593 2.71874,-1.92184 6.56249,-2.88278 11.53125,-2.88282 4.73435,4e-5 9.33982,1.03129 13.81641,3.09375 l -3.23438,7.73438 c -1.96877,-0.84372 -3.80862,-1.53513 -5.51953,-2.07422 -1.71096,-0.53903 -3.45705,-0.80856 -5.23828,-0.80859 -3.16408,3e-5 -4.74611,0.8555 -4.74609,2.5664 -2e-5,0.96097 0.50389,1.793 1.51172,2.4961 1.03123,0.70315 3.26951,1.74612 6.71484,3.1289 3.07029,1.24221 5.32028,2.40237 6.75,3.48047 1.42966,1.07815 2.48434,2.32033 3.16406,3.72656 0.67966,1.40627 1.0195,3.08205 1.01953,5.02735"
         style=""
         id="path3043" />
    </g>
    <path
       id="path3767"
       d="m120.35,453.61c0.7005-0.13489,2.9293-0.5123,4.953-0.83869,6.436-1.0381,13.777-3.115,17.265-4.8844,2.6755-1.3576,6.2734-3.8829,8.5257-5.9843,1.9177-1.7891,4.635-5.0527,4.635-5.567,0-0.12251-0.92338-0.76534-2.0519-1.4285-8.3886-4.9296-12.932-12.554-12.944-21.724-0.0111-8.0604,2.714-13.668,10.6-21.812,10.091-10.421,23.835-16.131,44.018-18.287,4.2327-0.45209,16.186-1.1221,16.738-0.93821,0.19317,0.0644-1.2332,0.34499-3.1696,0.62354-7.0426,1.013-14.256,2.8066-18.599,4.6246-4.8836,2.0443-11.184,6.9381-13.879,10.781l-1.1989,1.7092,1.3512,0.77712c5.5898,3.2147,9.1955,6.9994,11.575,12.15,1.5236,3.2976,2.0835,6.1574,2.0858,10.653,0.001,3.399-0.0895,4.1667-0.73921,6.2267-1.5598,4.9446-4.5201,9.5926-9.3062,14.612-10.487,10.998-24.588,16.74-46.274,18.843-5.034,0.48816-15.58,0.8493-13.585,0.46523zm48.81-26.2c6.5937-1.7174,11.194-7.6464,11.194-14.426,0-9.3433-8.7304-16.444-17.887-14.548-2.5995,0.53809-5.4899,2.112-7.4032,4.031-8.0146,8.0388-4.7677,21.08,6.1864,24.85,1.8111,0.62314,5.7011,0.66939,7.9099,0.0941z"
       fill="#0000b8" />
  </g>
</svg>
